# Object Export From Tinkercad Server 2015

mtllib obj.mtl

o obj_0
v 99 		-100 		0.2
v 99 		-100 		0.1
v 99 		100 		0.2
v 99 		100 		0.1
v -101 		100 		0.2
v -101 		100 		0.1
v -101 		-100 		0.2
v -101 		-100 		0.1
# 8 vertices

g group_0_2829873

usemtl color_2829873
s 0

f 1 	2 	3
f 2 	4 	3
f 5 	6 	7
f 6 	8 	7
f 5 	7 	3
f 7 	1 	3
f 8 	6 	2
f 6 	4 	2
f 7 	8 	1
f 8 	2 	1
f 3 	4 	5
f 4 	6 	5
# 12 faces

 #end of obj_0

o obj_1
v -50.4748 		55.2356 		26
v -50.4748 		55.2356 		0.2
v -50.4748 		85.2356 		26
v -50.4748 		85.2356 		0.2
v -80.4748 		85.2356 		26
v -80.4748 		85.2356 		0.2
v -80.4748 		55.2356 		26
v -80.4748 		55.2356 		0.2
# 8 vertices

g group_1_6383466

usemtl color_6383466
s 0

f 9 	10 	11
f 10 	12 	11
f 13 	14 	15
f 14 	16 	15
f 13 	15 	11
f 15 	9 	11
f 16 	14 	10
f 14 	12 	10
f 15 	16 	9
f 16 	10 	9
f 11 	12 	13
f 12 	14 	13
# 12 faces

 #end of obj_1

o obj_2
v -20.9748 		55.2356 		68
v -20.9748 		55.2356 		0.2
v -20.9748 		85.2356 		68
v -20.9748 		85.2356 		0.2
v -50.9748 		85.2356 		68
v -50.9748 		85.2356 		0.2
v -50.9748 		55.2356 		68
v -50.9748 		55.2356 		0.2
# 8 vertices

g group_2_6383466

usemtl color_6383466
s 0

f 17 	18 	19
f 18 	20 	19
f 21 	22 	23
f 22 	24 	23
f 21 	23 	19
f 23 	17 	19
f 24 	22 	18
f 22 	20 	18
f 23 	24 	17
f 24 	18 	17
f 19 	20 	21
f 20 	22 	21
# 12 faces

 #end of obj_2

o obj_3
v 10.0252 		55.2356 		101
v 10.0252 		55.2356 		0.2
v 10.0252 		85.2356 		101
v 10.0252 		85.2356 		0.2
v -19.9748 		85.2356 		101
v -19.9748 		85.2356 		0.2
v -19.9748 		55.2356 		101
v -19.9748 		55.2356 		0.2
# 8 vertices

g group_3_6383466

usemtl color_6383466
s 0

f 25 	26 	27
f 26 	28 	27
f 29 	30 	31
f 30 	32 	31
f 29 	31 	27
f 31 	25 	27
f 32 	30 	26
f 30 	28 	26
f 31 	32 	25
f 32 	26 	25
f 27 	28 	29
f 28 	30 	29
# 12 faces

 #end of obj_3

o obj_4
v 41.0252 		55.2356 		84
v 41.0252 		55.2356 		0.2
v 41.0252 		85.2356 		84
v 41.0252 		85.2356 		0.2
v 11.0252 		85.2356 		84
v 11.0252 		85.2356 		0.2
v 11.0252 		55.2356 		84
v 11.0252 		55.2356 		0.2
# 8 vertices

g group_4_6383466

usemtl color_6383466
s 0

f 33 	34 	35
f 34 	36 	35
f 37 	38 	39
f 38 	40 	39
f 37 	39 	35
f 39 	33 	35
f 40 	38 	34
f 38 	36 	34
f 39 	40 	33
f 40 	34 	33
f 35 	36 	37
f 36 	38 	37
# 12 faces

 #end of obj_4

o obj_5
v 72.0252 		55.2356 		20
v 72.0252 		55.2356 		0.2
v 72.0252 		85.2356 		20
v 72.0252 		85.2356 		0.2
v 42.0252 		85.2356 		20
v 42.0252 		85.2356 		0.2
v 42.0252 		55.2356 		20
v 42.0252 		55.2356 		0.2
# 8 vertices

g group_5_6383466

usemtl color_6383466
s 0

f 41 	42 	43
f 42 	44 	43
f 45 	46 	47
f 46 	48 	47
f 45 	47 	43
f 47 	41 	43
f 48 	46 	42
f 46 	44 	42
f 47 	48 	41
f 48 	42 	41
f 43 	44 	45
f 44 	46 	45
# 12 faces

 #end of obj_5

o obj_6
v -20 		24 		134
v -20 		24 		0.2
v -20 		54 		134
v -20 		54 		0.2
v -50 		54 		134
v -50 		54 		0.2
v -50 		24 		134
v -50 		24 		0.2
# 8 vertices

g group_6_6383466

usemtl color_6383466
s 0

f 49 	50 	51
f 50 	52 	51
f 53 	54 	55
f 54 	56 	55
f 53 	55 	51
f 55 	49 	51
f 56 	54 	50
f 54 	52 	50
f 55 	56 	49
f 56 	50 	49
f 51 	52 	53
f 52 	54 	53
# 12 faces

 #end of obj_6

o obj_7
v -50.5 		24 		51
v -50.5 		24 		0.2
v -50.5 		54 		51
v -50.5 		54 		0.2
v -80.5 		54 		51
v -80.5 		54 		0.2
v -80.5 		24 		51
v -80.5 		24 		0.2
# 8 vertices

g group_7_6383466

usemtl color_6383466
s 0

f 57 	58 	59
f 58 	60 	59
f 61 	62 	63
f 62 	64 	63
f 61 	63 	59
f 63 	57 	59
f 64 	62 	58
f 62 	60 	58
f 63 	64 	57
f 64 	58 	57
f 59 	60 	61
f 60 	62 	61
# 12 faces

 #end of obj_7

o obj_8
v 10.5 		24 		152
v 10.5 		24 		0.2
v 10.5 		54 		152
v 10.5 		54 		0.2
v -19.5 		54 		152
v -19.5 		54 		0.2
v -19.5 		24 		152
v -19.5 		24 		0.2
# 8 vertices

g group_8_6383466

usemtl color_6383466
s 0

f 65 	66 	67
f 66 	68 	67
f 69 	70 	71
f 70 	72 	71
f 69 	71 	67
f 71 	65 	67
f 72 	70 	66
f 70 	68 	66
f 71 	72 	65
f 72 	66 	65
f 67 	68 	69
f 68 	70 	69
# 12 faces

 #end of obj_8

o obj_9
v 41.5 		24 		128
v 41.5 		24 		0.2
v 41.5 		54 		128
v 41.5 		54 		0.2
v 11.5 		54 		128
v 11.5 		54 		0.2
v 11.5 		24 		128
v 11.5 		24 		0.2
# 8 vertices

g group_9_6383466

usemtl color_6383466
s 0

f 73 	74 	75
f 74 	76 	75
f 77 	78 	79
f 78 	80 	79
f 77 	79 	75
f 79 	73 	75
f 80 	78 	74
f 78 	76 	74
f 79 	80 	73
f 80 	74 	73
f 75 	76 	77
f 76 	78 	77
# 12 faces

 #end of obj_9

o obj_10
v 72.5 		24 		103
v 72.5 		24 		0.2
v 72.5 		54 		103
v 72.5 		54 		0.2
v 42.5 		54 		103
v 42.5 		54 		0.2
v 42.5 		24 		103
v 42.5 		24 		0.2
# 8 vertices

g group_10_6383466

usemtl color_6383466
s 0

f 81 	82 	83
f 82 	84 	83
f 85 	86 	87
f 86 	88 	87
f 85 	87 	83
f 87 	81 	83
f 88 	86 	82
f 86 	84 	82
f 87 	88 	81
f 88 	82 	81
f 83 	84 	85
f 84 	86 	85
# 12 faces

 #end of obj_10

o obj_11
v -50.9874 		-6.7644 		80
v -50.9874 		-6.7644 		0.2
v -50.9874 		23.2356 		80
v -50.9874 		23.2356 		0.2
v -80.9874 		23.2356 		80
v -80.9874 		23.2356 		0.2
v -80.9874 		-6.7644 		80
v -80.9874 		-6.7644 		0.2
# 8 vertices

g group_11_6383466

usemtl color_6383466
s 0

f 89 	90 	91
f 90 	92 	91
f 93 	94 	95
f 94 	96 	95
f 93 	95 	91
f 95 	89 	91
f 96 	94 	90
f 94 	92 	90
f 95 	96 	89
f 96 	90 	89
f 91 	92 	93
f 92 	94 	93
# 12 faces

 #end of obj_11

o obj_12
v -20.9874 		-6.7644 		103
v -20.9874 		-6.7644 		0.2
v -20.9874 		23.2356 		103
v -20.9874 		23.2356 		0.2
v -50.9874 		23.2356 		103
v -50.9874 		23.2356 		0.2
v -50.9874 		-6.7644 		103
v -50.9874 		-6.7644 		0.2
# 8 vertices

g group_12_6383466

usemtl color_6383466
s 0

f 97 	98 	99
f 98 	100 	99
f 101 	102 	103
f 102 	104 	103
f 101 	103 	99
f 103 	97 	99
f 104 	102 	98
f 102 	100 	98
f 103 	104 	97
f 104 	98 	97
f 99 	100 	101
f 100 	102 	101
# 12 faces

 #end of obj_12

o obj_13
v 10.0126 		-6.7644 		237
v 10.0126 		-6.7644 		0.2
v 10.0126 		23.2356 		237
v 10.0126 		23.2356 		0.2
v -19.9874 		23.2356 		237
v -19.9874 		23.2356 		0.2
v -19.9874 		-6.7644 		237
v -19.9874 		-6.7644 		0.2
# 8 vertices

g group_13_6383466

usemtl color_6383466
s 0

f 105 	106 	107
f 106 	108 	107
f 109 	110 	111
f 110 	112 	111
f 109 	111 	107
f 111 	105 	107
f 112 	110 	106
f 110 	108 	106
f 111 	112 	105
f 112 	106 	105
f 107 	108 	109
f 108 	110 	109
# 12 faces

 #end of obj_13

o obj_14
v 41.0126 		-6.7644 		64
v 41.0126 		-6.7644 		0.2
v 41.0126 		23.2356 		64
v 41.0126 		23.2356 		0.2
v 11.0126 		23.2356 		64
v 11.0126 		23.2356 		0.2
v 11.0126 		-6.7644 		64
v 11.0126 		-6.7644 		0.2
# 8 vertices

g group_14_6383466

usemtl color_6383466
s 0

f 113 	114 	115
f 114 	116 	115
f 117 	118 	119
f 118 	120 	119
f 117 	119 	115
f 119 	113 	115
f 120 	118 	114
f 118 	116 	114
f 119 	120 	113
f 120 	114 	113
f 115 	116 	117
f 116 	118 	117
# 12 faces

 #end of obj_14

o obj_15
v 72.0126 		-6.7644 		44
v 72.0126 		-6.7644 		0.2
v 72.0126 		23.2356 		44
v 72.0126 		23.2356 		0.2
v 42.0126 		23.2356 		44
v 42.0126 		23.2356 		0.2
v 42.0126 		-6.7644 		44
v 42.0126 		-6.7644 		0.2
# 8 vertices

g group_15_6383466

usemtl color_6383466
s 0

f 121 	122 	123
f 122 	124 	123
f 125 	126 	127
f 126 	128 	127
f 125 	127 	123
f 127 	121 	123
f 128 	126 	122
f 126 	124 	122
f 127 	128 	121
f 128 	122 	121
f 123 	124 	125
f 124 	126 	125
# 12 faces

 #end of obj_15

o obj_16
v -50.5126 		-38 		58
v -50.5126 		-38 		0.2
v -50.5126 		-8 		58
v -50.5126 		-8 		0.2
v -80.5126 		-8 		58
v -80.5126 		-8 		0.2
v -80.5126 		-38 		58
v -80.5126 		-38 		0.2
# 8 vertices

g group_16_6383466

usemtl color_6383466
s 0

f 129 	130 	131
f 130 	132 	131
f 133 	134 	135
f 134 	136 	135
f 133 	135 	131
f 135 	129 	131
f 136 	134 	130
f 134 	132 	130
f 135 	136 	129
f 136 	130 	129
f 131 	132 	133
f 132 	134 	133
# 12 faces

 #end of obj_16

o obj_17
v -20.5126 		-38 		126
v -20.5126 		-38 		0.2
v -20.5126 		-8 		126
v -20.5126 		-8 		0.2
v -50.5126 		-8 		126
v -50.5126 		-8 		0.2
v -50.5126 		-38 		126
v -50.5126 		-38 		0.2
# 8 vertices

g group_17_6383466

usemtl color_6383466
s 0

f 137 	138 	139
f 138 	140 	139
f 141 	142 	143
f 142 	144 	143
f 141 	143 	139
f 143 	137 	139
f 144 	142 	138
f 142 	140 	138
f 143 	144 	137
f 144 	138 	137
f 139 	140 	141
f 140 	142 	141
# 12 faces

 #end of obj_17

o obj_18
v 10.4874 		-38 		180
v 10.4874 		-38 		0.2
v 10.4874 		-8 		180
v 10.4874 		-8 		0.2
v -19.5126 		-8 		180
v -19.5126 		-8 		0.2
v -19.5126 		-38 		180
v -19.5126 		-38 		0.2
# 8 vertices

g group_18_6383466

usemtl color_6383466
s 0

f 145 	146 	147
f 146 	148 	147
f 149 	150 	151
f 150 	152 	151
f 149 	151 	147
f 151 	145 	147
f 152 	150 	146
f 150 	148 	146
f 151 	152 	145
f 152 	146 	145
f 147 	148 	149
f 148 	150 	149
# 12 faces

 #end of obj_18

o obj_19
v 41.4874 		-38 		124
v 41.4874 		-38 		0.2
v 41.4874 		-8 		124
v 41.4874 		-8 		0.2
v 11.4874 		-8 		124
v 11.4874 		-8 		0.2
v 11.4874 		-38 		124
v 11.4874 		-38 		0.2
# 8 vertices

g group_19_6383466

usemtl color_6383466
s 0

f 153 	154 	155
f 154 	156 	155
f 157 	158 	159
f 158 	160 	159
f 157 	159 	155
f 159 	153 	155
f 160 	158 	154
f 158 	156 	154
f 159 	160 	153
f 160 	154 	153
f 155 	156 	157
f 156 	158 	157
# 12 faces

 #end of obj_19

o obj_20
v 72.4874 		-38 		81
v 72.4874 		-38 		0.2
v 72.4874 		-8 		81
v 72.4874 		-8 		0.2
v 42.4874 		-8 		81
v 42.4874 		-8 		0.2
v 42.4874 		-38 		81
v 42.4874 		-38 		0.2
# 8 vertices

g group_20_6383466

usemtl color_6383466
s 0

f 161 	162 	163
f 162 	164 	163
f 165 	166 	167
f 166 	168 	167
f 165 	167 	163
f 167 	161 	163
f 168 	166 	162
f 166 	164 	162
f 167 	168 	161
f 168 	162 	161
f 163 	164 	165
f 164 	166 	165
# 12 faces

 #end of obj_20

o obj_21
v 72.9874 		-69 		24
v 72.9874 		-69 		0.2
v 72.9874 		-39 		24
v 72.9874 		-39 		0.2
v 42.9874 		-39 		24
v 42.9874 		-39 		0.2
v 42.9874 		-69 		24
v 42.9874 		-69 		0.2
# 8 vertices

g group_21_6383466

usemtl color_6383466
s 0

f 169 	170 	171
f 170 	172 	171
f 173 	174 	175
f 174 	176 	175
f 173 	175 	171
f 175 	169 	171
f 176 	174 	170
f 174 	172 	170
f 175 	176 	169
f 176 	170 	169
f 171 	172 	173
f 172 	174 	173
# 12 faces

 #end of obj_21

o obj_22
v -50.5126 		-69 		20
v -50.5126 		-69 		0.2
v -50.5126 		-39 		20
v -50.5126 		-39 		0.2
v -80.5126 		-39 		20
v -80.5126 		-39 		0.2
v -80.5126 		-69 		20
v -80.5126 		-69 		0.2
# 8 vertices

g group_22_6383466

usemtl color_6383466
s 0

f 177 	178 	179
f 178 	180 	179
f 181 	182 	183
f 182 	184 	183
f 181 	183 	179
f 183 	177 	179
f 184 	182 	178
f 182 	180 	178
f 183 	184 	177
f 184 	178 	177
f 179 	180 	181
f 180 	182 	181
# 12 faces

 #end of obj_22

o obj_23
v -20.5126 		-69 		57
v -20.5126 		-69 		0.2
v -20.5126 		-39 		57
v -20.5126 		-39 		0.2
v -50.5126 		-39 		57
v -50.5126 		-39 		0.2
v -50.5126 		-69 		57
v -50.5126 		-69 		0.2
# 8 vertices

g group_23_6383466

usemtl color_6383466
s 0

f 185 	186 	187
f 186 	188 	187
f 189 	190 	191
f 190 	192 	191
f 189 	191 	187
f 191 	185 	187
f 192 	190 	186
f 190 	188 	186
f 191 	192 	185
f 192 	186 	185
f 187 	188 	189
f 188 	190 	189
# 12 faces

 #end of obj_23

o obj_24
v 10.4874 		-69 		109
v 10.4874 		-69 		0.2
v 10.4874 		-39 		109
v 10.4874 		-39 		0.2
v -19.5126 		-39 		109
v -19.5126 		-39 		0.2
v -19.5126 		-69 		109
v -19.5126 		-69 		0.2
# 8 vertices

g group_24_6383466

usemtl color_6383466
s 0

f 193 	194 	195
f 194 	196 	195
f 197 	198 	199
f 198 	200 	199
f 197 	199 	195
f 199 	193 	195
f 200 	198 	194
f 198 	196 	194
f 199 	200 	193
f 200 	194 	193
f 195 	196 	197
f 196 	198 	197
# 12 faces

 #end of obj_24

o obj_25
v 41.4874 		-69 		62
v 41.4874 		-69 		0.2
v 41.4874 		-39 		62
v 41.4874 		-39 		0.2
v 11.4874 		-39 		62
v 11.4874 		-39 		0.2
v 11.4874 		-69 		62
v 11.4874 		-69 		0.2
# 8 vertices

g group_25_6383466

usemtl color_6383466
s 0

f 201 	202 	203
f 202 	204 	203
f 205 	206 	207
f 206 	208 	207
f 205 	207 	203
f 207 	201 	203
f 208 	206 	202
f 206 	204 	202
f 207 	208 	201
f 208 	202 	201
f 203 	204 	205
f 204 	206 	205
# 12 faces

 #end of obj_25

